<?xml version="1.0" standalone="no"?><!DOCTYPE svg PUBLIC "-//W3C//DTD SVG 1.1//EN" "http://www.w3.org/Graphics/SVG/1.1/DTD/svg11.dtd"><svg t="1680054135571" class="icon" viewBox="0 0 1024 1024" version="1.1" xmlns="http://www.w3.org/2000/svg" p-id="9953" xmlns:xlink="http://www.w3.org/1999/xlink" width="200" height="200"><path d="M981.451538 1023.999573a42.666649 42.666649 0 0 1-30.293321-12.373328l-938.666275-938.666275A42.666649 42.666649 0 0 1 73.078583 12.373328l938.666275 938.666276a42.666649 42.666649 0 0 1 0 60.586641A42.666649 42.666649 0 0 1 981.451538 1023.999573z" p-id="9954"></path><path d="M896.11824 938.666276H128.11856a127.999947 127.999947 0 0 1-127.999947-127.999947V341.333191a127.999947 127.999947 0 0 1 127.999947-127.999947h127.999947a42.666649 42.666649 0 0 1 0 85.333298H128.11856a42.666649 42.666649 0 0 0-42.666649 42.666649v469.333138a42.666649 42.666649 0 0 0 42.666649 42.666649h767.99968a42.666649 42.666649 0 0 1 0 85.333298z m85.333298-156.159935a42.666649 42.666649 0 0 1-42.666649-42.666649V341.333191a42.666649 42.666649 0 0 0-42.666649-42.666649h-170.666596a42.666649 42.666649 0 0 1-35.413318-19.199992L617.078356 170.666596H384.118453a42.666649 42.666649 0 0 1 0-85.333298h255.999894a42.666649 42.666649 0 0 1 35.413318 19.199992L748.491635 213.333244H896.11824a127.999947 127.999947 0 0 1 127.999947 127.999947v398.506501a42.666649 42.666649 0 0 1-42.666649 42.666649zM512.1184 767.99968a213.333244 213.333244 0 0 1-121.173283-388.693171 42.666649 42.666649 0 1 1 47.786647 70.826637 127.999947 127.999947 0 0 0-33.279986 33.279986 127.999947 127.999947 0 0 0 33.706652 177.919926 127.999947 127.999947 0 0 0 177.49326-33.279986 42.666649 42.666649 0 0 1 59.306642-11.519996 42.666649 42.666649 0 0 1 11.093328 59.306642 213.333244 213.333244 0 0 1-136.533276 89.599963 249.17323 249.17323 0 0 1-38.399984 2.559999z" p-id="9955"></path></svg>