<?xml version="1.0" standalone="no"?><!DOCTYPE svg PUBLIC "-//W3C//DTD SVG 1.1//EN" "http://www.w3.org/Graphics/SVG/1.1/DTD/svg11.dtd"><svg t="1680228827570" class="icon" viewBox="0 0 1024 1024" version="1.1" xmlns="http://www.w3.org/2000/svg" p-id="2751" xmlns:xlink="http://www.w3.org/1999/xlink" width="200" height="200"><path d="M957.708178 284.909935c-0.670266-18.917862-1.332345-35.521005-1.995447-49.801243-0.663102-14.272052-1.325182-24.397666-1.988284-30.376844-1.332345-10.623965-3.491521-18.590404-6.491855-23.90648-2.984984-5.300726-6.470365-8.79327-10.468422-10.460236-3.982708-1.65264-8.30106-1.65264-12.94687 0-4.652973 1.667989-8.971325 4.154623-12.969383 7.467066-2.657526 2.00261-9.150404 7.147794-19.446911 15.44169-10.304693 8.293897-23.102161 18.092054-38.387285 29.379121-41.209564-48.467875-91.077322-86.811158-149.574621-115.028826-58.497299-28.224832-121.975029-42.334177-190.449563-42.334178-61.817927 0-119.986745 11.778254-174.49315 35.357276-54.513568 23.571858-101.873202 55.444776-142.092205 95.618755-40.219004 40.166815-72.129784 87.481424-95.723132 141.928476C77.079516 392.649751 65.286935 450.752054 65.286935 512.49528c0 61.758576 11.793604 119.688963 35.394115 173.808558 23.601534 54.119595 55.511291 101.426017 95.723132 141.93564 40.219004 40.502459 87.585801 72.375377 142.092205 95.618754 54.506405 23.229051 112.676246 34.850739 174.49315 34.850739 50.53086 0 98.716302-7.966439 144.57884-23.906479 45.8697-15.925714 87.592964-38.007639 125.146254-66.23247 37.561477-28.217668 69.970608-61.922305 97.219206-101.091397a444.754456 444.754456 0 0 0 27.815509-45.542242l-0.045026-0.022513c5.918803-10.594289 9.298783-22.804379 9.298784-35.80446 0-40.643676-32.93818-73.589019-73.566506-73.589019-28.195156 0-52.674687 15.873526-65.027016 39.154765l-0.015349-0.007163a286.407032 286.407032 0 0 1-16.61747 27.666106c-18.278295 26.892487-40.219004 50.299593-65.807798 70.216202-25.596981 19.923772-53.851489 35.357276-84.763522 46.316885s-63.649646 16.431228-98.216929 16.431228c-41.871643 0-81.101109-7.80271-117.656677-23.40813-36.57808-15.597233-68.466348-37.018102-95.730295-64.237023-27.256784-27.227108-48.683792-59.100026-64.311724-95.618754-15.612583-36.525891-23.422456-75.367525-23.422456-116.54025 0-41.827641 7.809873-81.003895 23.422456-117.522624 15.627932-36.525891 37.054941-68.391646 64.311724-95.618754 27.263947-27.227108 59.152215-48.63979 95.730295-64.24521 36.555567-15.597233 75.785034-23.408129 117.656677-23.408129 45.207621 0 87.086427 9.135054 125.638465 27.398 38.551014 18.255783 71.801303 43.323715 99.714026 75.196633-15.947204 12.619412-29.41596 23.408129-40.37557 32.372291-10.982122 8.956999-17.451464 14.108323-19.454074 15.433504-6.641257 5.316076-10.460236 12.44852-11.466146 21.419846-0.997724 8.956999 4.161786 16.10377 15.456017 21.412682 3.990894 1.988284 13.468756 5.136997 28.411073 9.462512 14.96483 4.311189 32.245402 8.964162 51.863205 13.944594 19.61064 4.980431 40.219004 9.78997 61.817928 14.43578a9738.873652 9738.873652 0 0 1 59.331293 12.94687c11.957333 2.657526 23.26589 3.65525 33.898041 2.993171 10.639315-0.670266 18.605753-3.65525 23.936155-8.971325 9.969049-9.954723 15.277962-26.222221 15.947204-48.796357 0.670266-17.928325 1.004887-37.025265 1.004887-57.268308 0.002047-20.255323-0.333598-39.836287-1.00284-58.769498z" fill="" p-id="2752"></path></svg>