<?xml version="1.0" encoding="UTF-8"?>
<svg id="vib" xmlns="http://www.w3.org/2000/svg" viewBox="0 0 94.55 51.1">
  <polyline points="2.5 48.11 9.45 39.65 4.48 29.89 11.43 21.43 6.46 11.67 13.42 3.2" style="fill: none; stroke: #231f20; stroke-linecap: round; stroke-linejoin: round; stroke-width: 5px;"/>
  <polyline points="13.82 48.11 20.77 39.65 15.8 29.89 22.75 21.43 17.78 11.67 24.73 3.2" style="fill: none; stroke: #231f20; stroke-linecap: round; stroke-linejoin: round; stroke-width: 5px;"/>
  <polyline points="70.21 48.11 77.16 39.65 72.19 29.89 79.14 21.43 74.17 11.67 81.12 3.2" style="fill: none; stroke: #231f20; stroke-linecap: round; stroke-linejoin: round; stroke-width: 5px;"/>
  <polyline points="81.13 48.04 88.09 39.58 83.11 29.82 90.07 21.36 85.09 11.6 92.05 3.13" style="fill: none; stroke: #231f20; stroke-linecap: round; stroke-linejoin: round; stroke-width: 5px;"/>
  <path d="M68.33,15.95c.47-5.42-3.51-15.95-10.85-15.95h-24.35l-1.7,11.32h23.39c4.05,0,3.8,10.85-2.79,10.85H29.79l-4.34,28.93h11.65l2.7-18.02,7.29,.15,4.69,17.87h11.9s-2.66-9.23-5.95-20.29c4.18,.6,10.13-9.44,10.6-14.87" style="fill: #231f20;"/>
  <line x1="38.1" y1="3.78" x2="34.54" y2="27.59" style="fill: none; stroke: #231f20; stroke-miterlimit: 10; stroke-width: 11px;"/>
</svg>